# xmcd
#
# Track frame offsets: 
#        182
#        16465
#        34270
#        61132
#        69170
#        84290
#        104047
#        121362
#        137762
#        149350
#        162487
#        180452
#
# Disc length: 2609 seconds
#
# Revision: 0
# Processed by: cddbd v1.5.2PL0 Copyright (c) Steve Scherf et al.
# Submitted via: ExactAudioCopy v0.95a5
#
DISCID=a30a2f0c
DTITLE=Paris Slim - Blues For Esther
DYEAR=1989
DGENRE=Blues
TTITLE0=Someday
TTITLE1=Can't Raise Me
TTITLE2=Blue Shadows
TTITLE3=Bad Kid
TTITLE4=Let Me Love You Baby
TTITLE5=Stranded
TTITLE6=Early In The Morning
TTITLE7=High And Lonesome
TTITLE8=Paris Slim
TTITLE9=Mailman
TTITLE10=Don't You Lie To Me
TTITLE11=Tribute To Lowell
EXTD=
EXTT0=
EXTT1=
EXTT2=
EXTT3=
EXTT4=
EXTT5=
EXTT6=
EXTT7=
EXTT8=
EXTT9=
EXTT10=
EXTT11=
PLAYORDER=
